<?xml version="1.0" encoding="UTF-8" standalone="no"?>


<svg
   width="123mm"
   height="13mm"
   viewBox="0 0 122.99987 12.999988"
   version="1.1"
   id="svg1"
   inkscape:version="1.4.3 (0d15f75, 2025-12-25)"
   sodipodi:docname="Logo SKL RGB 2K krzywe.svg"
   xml:space="preserve"
   xmlns:inkscape="http://www.inkscape.org/namespaces/inkscape"
   xmlns:sodipodi="http://sodipodi.sourceforge.net/DTD/sodipodi-0.dtd"
   xmlns="http://www.w3.org/2000/svg"
   xmlns:svg="http://www.w3.org/2000/svg"><sodipodi:namedview
     id="namedview1"
     pagecolor="#ffffff"
     bordercolor="#000000"
     borderopacity="0.25"
     inkscape:showpageshadow="2"
     inkscape:pageopacity="0.0"
     inkscape:pagecheckerboard="0"
     inkscape:deskcolor="#d1d1d1"
     inkscape:document-units="mm"
     inkscape:zoom="2"
     inkscape:cx="222"
     inkscape:cy="42.75"
     inkscape:window-width="1920"
     inkscape:window-height="1009"
     inkscape:window-x="-8"
     inkscape:window-y="-8"
     inkscape:window-maximized="1"
     inkscape:current-layer="layer1"
     inkscape:lockguides="true"
     showborder="true" /><defs
     id="defs1"><rect
       x="216.99265"
       y="328.27094"
       width="401.72019"
       height="57.354122"
       id="rect1" /><inkscape:path-effect
       effect="fillet_chamfer"
       id="path-effect10"
       is_visible="true"
       lpeversion="1"
       nodesatellites_param="F,0,0,1,0,0,0,1 @ F,0,0,1,0,0,0,1 @ F,0,0,1,0,0,0,1 @ F,0,0,1,0,0,0,1 @ F,0,0,1,0,0,0,1 @ F,0,0,1,0,0,0,1 @ F,0,1,1,0,10.583333,0,1"
       radius="40"
       unit="px"
       method="auto"
       mode="F"
       chamfer_steps="1"
       flexible="false"
       use_knot_distance="true"
       apply_no_radius="true"
       apply_with_radius="true"
       only_selected="true"
       hide_knots="false" /><inkscape:path-effect
       effect="fillet_chamfer"
       id="path-effect8"
       is_visible="true"
       lpeversion="1"
       nodesatellites_param="F,0,0,1,0,0,0,1 @ F,0,0,1,0,0,0,1 @ F,0,0,1,0,0,0,1 @ F,0,0,1,0,0,0,1 @ F,0,0,1,0,0,0,1 @ F,0,0,1,0,0,0,1 @ F,0,1,1,0,10.583333,0,1"
       radius="40"
       unit="px"
       method="auto"
       mode="F"
       chamfer_steps="1"
       flexible="false"
       use_knot_distance="true"
       apply_no_radius="true"
       apply_with_radius="true"
       only_selected="true"
       hide_knots="false" /><inkscape:path-effect
       effect="fillet_chamfer"
       id="path-effect6"
       is_visible="true"
       lpeversion="1"
       nodesatellites_param="F,0,0,1,0,0,0,1 @ F,0,0,1,0,0,0,1 @ F,0,0,1,0,0,0,1 @ F,0,0,1,0,0,0,1 @ F,0,0,1,0,0,0,1 @ F,0,1,1,0,0,0,1 @ F,0,1,1,0,10.583333,0,1"
       radius="40"
       unit="px"
       method="auto"
       mode="F"
       chamfer_steps="1"
       flexible="false"
       use_knot_distance="true"
       apply_no_radius="true"
       apply_with_radius="true"
       only_selected="true"
       hide_knots="false" /><inkscape:path-effect
       effect="fillet_chamfer"
       id="path-effect4"
       is_visible="true"
       lpeversion="1"
       nodesatellites_param="F,0,0,1,0,0,0,1 @ F,0,0,1,0,0,0,1 @ F,0,0,1,0,0,0,1 @ F,0,0,1,0,0,0,1 @ F,0,0,1,0,0,0,1 @ F,0,0,1,0,0,0,1 @ F,0,1,1,0,10.583333,0,1"
       radius="40"
       unit="px"
       method="auto"
       mode="F"
       chamfer_steps="1"
       flexible="false"
       use_knot_distance="true"
       apply_no_radius="true"
       apply_with_radius="true"
       only_selected="true"
       hide_knots="false" /><inkscape:path-effect
       effect="fillet_chamfer"
       id="path-effect2"
       is_visible="true"
       lpeversion="1"
       nodesatellites_param="F,0,0,1,0,0,0,1 @ F,0,1,1,0,0,0,1 @ F,0,1,1,0,0,0,1 @ F,0,1,1,0,0,0,1 @ F,0,1,1,0,0,0,1 @ F,0,1,1,0,0,0,1 @ F,0,1,1,0,10.583333,0,1"
       radius="40"
       unit="px"
       method="auto"
       mode="F"
       chamfer_steps="1"
       flexible="false"
       use_knot_distance="true"
       apply_no_radius="true"
       apply_with_radius="true"
       only_selected="true"
       hide_knots="false" /></defs><g
     inkscape:label="Warstwa 1"
     inkscape:groupmode="layer"
     id="layer1"
     transform="translate(-45.99652,-87.202088)"><path
       style="font-weight:bold;font-size:46.382px;font-family:'Inter 24pt';-inkscape-font-specification:'Inter 24pt Bold';white-space:pre;shape-padding:1.4559;fill:#5e6a71;stroke-width:0.273813"
       d="m 64.626341,98.663192 q -1.148295,0 -1.975564,-0.361271 -0.827268,-0.361271 -1.277945,-1.0589 -0.444501,-0.697627 -0.456849,-1.69424 h 1.833573 q 0.01851,0.492077 0.253118,0.834662 0.240771,0.336356 0.654406,0.516993 0.413634,0.174407 0.969261,0.174407 0.518587,0 0.901352,-0.143262 0.382768,-0.149492 0.598846,-0.417331 0.216077,-0.26784 0.216077,-0.622884 0,-0.31144 -0.179037,-0.529448 -0.179034,-0.218009 -0.537107,-0.37996 -0.358071,-0.161948 -0.907524,-0.286525 l -0.987785,-0.230467 q -1.277943,-0.292755 -1.944697,-0.921865 -0.660581,-0.62911 -0.660581,-1.631952 0,-0.847119 0.438329,-1.476229 0.444503,-0.629113 1.228557,-0.977927 0.784053,-0.355042 1.808876,-0.355042 1.043348,0 1.808878,0.355042 0.765534,0.355044 1.191514,1.009069 0.425982,0.647799 0.450674,1.532292 h -1.802701 q -0.04939,-0.616654 -0.487718,-0.965469 -0.438329,-0.348814 -1.166819,-0.348814 -0.469198,0 -0.821097,0.143265 -0.351896,0.143262 -0.543278,0.398642 -0.191383,0.249154 -0.191383,0.579283 0,0.31144 0.179034,0.529448 0.179036,0.211782 0.524761,0.361271 0.345725,0.149492 0.83344,0.261612 l 0.858137,0.199323 q 0.666755,0.149492 1.185339,0.379957 0.518587,0.224238 0.876658,0.548137 0.358073,0.323899 0.543281,0.759916 0.191383,0.429788 0.191383,0.977925 0,0.872034 -0.432154,1.513603 -0.432155,0.635339 -1.240903,0.984154 -0.808748,0.342585 -1.932352,0.342585 z m 4.827791,-0.143263 v -9.280945 h 6.40207 v 1.613267 h -4.512936 v 2.192544 h 4.173385 v 1.575892 h -4.173385 v 2.285978 h 4.519107 v 1.613264 z m 7.680013,0 v -9.280945 h 3.636277 q 1.043346,0 1.790356,0.37373 0.74701,0.37373 1.142124,1.052671 0.401288,0.678943 0.401288,1.607037 0,0.921865 -0.413634,1.588349 -0.413634,0.666484 -1.179167,1.027755 -0.765531,0.355045 -1.821225,0.355045 H 78.257748 V 93.70505 h 2.296597 q 0.537105,0 0.90135,-0.168178 0.370419,-0.174407 0.561801,-0.492077 0.191383,-0.3239 0.191383,-0.772373 0,-0.454705 -0.191383,-0.778604 -0.191382,-0.323897 -0.561801,-0.498304 -0.370417,-0.174408 -0.907524,-0.174408 h -1.52489 v 7.698823 z m 5.167341,0 -2.160775,-4.204455 h 2.018781 l 2.20399,4.204455 z m 4.975956,0 -2.469459,-9.280945 h 2.037302 l 1.074214,4.590642 q 0.129647,0.573053 0.240772,1.183477 0.117301,0.604195 0.222251,1.214619 0.104953,0.610427 0.209906,1.202162 h -0.364245 q 0.117299,-0.591735 0.228423,-1.202162 0.111127,-0.610424 0.234601,-1.214619 0.12347,-0.610424 0.259292,-1.183477 l 1.129775,-4.590642 h 1.950872 l 1.123604,4.590642 q 0.141993,0.573053 0.265466,1.183477 0.123473,0.604195 0.234598,1.214619 0.117301,0.610427 0.228426,1.202162 h -0.37042 q 0.104953,-0.591735 0.209906,-1.202162 0.10495,-0.610424 0.222249,-1.214619 0.117301,-0.610424 0.240774,-1.183477 l 1.074212,-4.590642 h 2.049651 l -2.475631,9.280945 h -2.13608 L 91.432304,93.599162 Q 91.265616,92.938907 91.123622,92.154075 90.9878,91.363014 90.808764,90.459836 h 0.493892 q -0.191382,0.890719 -0.32103,1.675551 -0.129645,0.778604 -0.302507,1.463775 l -1.265597,4.920767 z m 14.631538,0.137033 q -1.22856,0 -2.210167,-0.573049 -0.975437,-0.573053 -1.54341,-1.63818 -0.561802,-1.071359 -0.561802,-2.560047 0,-1.494917 0.561802,-2.566273 0.567973,-1.071359 1.54341,-1.644409 0.981607,-0.573053 2.210167,-0.573053 1.22855,0 2.20399,0.573053 0.97544,0.57305 1.54341,1.644409 0.56797,1.071356 0.56797,2.566273 0,1.488688 -0.56797,2.560047 -0.56797,1.071356 -1.54341,1.644409 -0.97544,0.56682 -2.20399,0.56682 z m 0,-1.68801 q 0.70997,0 1.25325,-0.355041 0.54328,-0.361274 0.84579,-1.052671 0.30251,-0.691399 0.30251,-1.675554 0,-0.99661 -0.30251,-1.68801 -0.30251,-0.691399 -0.84579,-1.046443 -0.54328,-0.361271 -1.25325,-0.361271 -0.70997,0 -1.25325,0.361271 -0.54328,0.355044 -0.851965,1.052673 -0.302509,0.691397 -0.302509,1.68178 0,0.984155 0.302509,1.675554 0.308685,0.691397 0.851965,1.052671 0.54328,0.355041 1.25325,0.355041 z"
       id="path2" /><path
       style="font-weight:bold;font-size:46.382px;font-family:'Inter 24pt';-inkscape-font-specification:'Inter 24pt, Bold';white-space:pre;shape-padding:1.4559;fill:#7090b7;stroke-width:0.273813"
       d="m 108.82963,96.51425 v -2.092885 q 0.30251,-0.442247 0.59885,-0.847119 0.29633,-0.404875 0.61736,-0.809747 0.32103,-0.411104 0.68528,-0.85335 l 2.25955,-2.672165 h 2.29042 l -3.88322,4.528355 -0.15434,-0.02492 z m -1.37672,2.005679 v -9.280945 h 1.88914 v 2.553818 l -0.0123,2.354494 0.0123,0.921867 v 3.450766 z m 5.7168,0 -2.7411,-4.198226 1.16064,-1.438856 3.78445,5.637082 z m 6.5811,0.137033 q -1.22856,0 -2.21017,-0.573049 -0.97543,-0.573053 -1.54341,-1.63818 -0.5618,-1.071359 -0.5618,-2.560047 0,-1.494917 0.5618,-2.566273 0.56798,-1.071359 1.54341,-1.644409 0.98161,-0.573053 2.21017,-0.573053 1.22855,0 2.20399,0.573053 0.97543,0.57305 1.54341,1.644409 0.56797,1.071356 0.56797,2.566273 0,1.488688 -0.56797,2.560047 -0.56798,1.071356 -1.54341,1.644409 -0.97544,0.56682 -2.20399,0.56682 z m 0,-1.68801 q 0.70997,0 1.25325,-0.355041 0.54328,-0.361274 0.84579,-1.052671 0.3025,-0.691399 0.3025,-1.675554 0,-0.99661 -0.3025,-1.68801 -0.30251,-0.691399 -0.84579,-1.046443 -0.54328,-0.361271 -1.25325,-0.361271 -0.70997,0 -1.25325,0.361271 -0.54328,0.355044 -0.85196,1.052673 -0.30251,0.691397 -0.30251,1.68178 0,0.984155 0.30251,1.675554 0.30868,0.691397 0.85196,1.052671 0.54328,0.355041 1.25325,0.355041 z m 5.54393,1.550977 v -9.280945 h 2.04348 l 2.93248,4.727678 q 0.17286,0.280295 0.38894,0.672711 0.22225,0.386186 0.45685,0.853348 0.2346,0.460935 0.45684,0.965468 l -0.20372,0.274069 q -0.0309,-0.467162 -0.0617,-1.027755 -0.0247,-0.566823 -0.037,-1.083816 -0.0123,-0.523222 -0.0123,-0.847118 v -4.534585 h 1.90766 v 9.280945 h -2.04965 l -2.66084,-4.279201 q -0.22225,-0.361271 -0.47538,-0.803517 -0.24694,-0.442247 -0.54328,-0.990381 -0.29016,-0.554367 -0.64205,-1.227078 l 0.29016,-0.124577 q 0.0432,0.678941 0.0679,1.289365 0.0247,0.610424 0.037,1.090045 0.0123,0.473388 0.0123,0.759916 v 4.285428 z m 8.98265,-7.667678 v -1.613267 h 7.49481 v 1.613267 h -2.79667 v 7.667678 h -1.89531 v -7.667678 z m 8.60606,7.667678 v -9.280945 h 3.63628 q 1.04334,0 1.79035,0.37373 0.74701,0.37373 1.14213,1.052671 0.40128,0.678943 0.40128,1.607037 0,0.921865 -0.41363,1.588349 -0.41363,0.666484 -1.17917,1.027755 -0.76553,0.355045 -1.82122,0.355045 h -2.43242 V 93.70505 h 2.2966 q 0.53711,0 0.90135,-0.168178 0.37042,-0.174407 0.5618,-0.492077 0.19138,-0.3239 0.19138,-0.772373 0,-0.454705 -0.19138,-0.778604 -0.19138,-0.323897 -0.5618,-0.498304 -0.37042,-0.174408 -0.90752,-0.174408 h -1.5249 v 7.698823 z m 5.16734,0 -2.16078,-4.204455 h 2.01879 l 2.20399,4.204455 z m 7.11204,0.137033 q -1.22855,0 -2.21016,-0.573049 -0.97544,-0.573053 -1.54341,-1.63818 -0.5618,-1.071359 -0.5618,-2.560047 0,-1.494917 0.5618,-2.566273 0.56797,-1.071359 1.54341,-1.644409 0.98161,-0.573053 2.21016,-0.573053 1.22856,0 2.20399,0.573053 0.97544,0.57305 1.54341,1.644409 0.56798,1.071356 0.56798,2.566273 0,1.488688 -0.56798,2.560047 -0.56797,1.071356 -1.54341,1.644409 -0.97543,0.56682 -2.20399,0.56682 z m 0,-1.68801 q 0.70997,0 1.25325,-0.355041 0.54328,-0.361274 0.84579,-1.052671 0.30251,-0.691399 0.30251,-1.675554 0,-0.99661 -0.30251,-1.68801 -0.30251,-0.691399 -0.84579,-1.046443 -0.54328,-0.361271 -1.25325,-0.361271 -0.70997,0 -1.25325,0.361271 -0.54328,0.355044 -0.85196,1.052673 -0.30251,0.691397 -0.30251,1.68178 0,0.984155 0.30251,1.675554 0.30868,0.691397 0.85196,1.052671 0.54328,0.355041 1.25325,0.355041 z m 5.54394,1.550977 v -9.280945 h 1.88913 v 7.667681 h 4.08695 v 1.613264 z"
       id="path3" /><g
       inkscape:label="Warstwa 1"
       id="layer1-8"
       transform="matrix(0.26850454,0,0,0.26850454,22.396008,52.697706)"><path
         style="fill:#5e6a71;stroke-width:0.264999;fill-opacity:1"
         d="m 91.21283,140.72279 12.86264,18.34666 7.14986,-5.05264 -9.83781,-13.65615 7.13609,-5.0409 2.44667,3.47211 15.57617,-11.69301 a 1.1474693,1.1474693 59.292469 0 0 -1.16509,-1.96166 z"
         id="path1"
         sodipodi:nodetypes="cccccccc"
         inkscape:path-effect="#path-effect2"
         inkscape:original-d="m 91.21283,140.72279 12.86264,18.34666 7.14986,-5.05264 -9.83781,-13.65615 7.13609,-5.0409 2.44667,3.47211 24.04,-18.04679 z"
         transform="scale(1.039555)" /><path
         style="fill:#7090b7;fill-opacity:1;stroke-width:0.264999"
         d="m 91.21283,140.72279 12.86264,18.34666 7.14986,-5.05264 -9.83781,-13.65615 7.13609,-5.0409 2.44667,3.47211 15.57617,-11.69301 a 1.1474693,1.1474693 59.292469 0 0 -1.16509,-1.96166 z"
         id="path8"
         sodipodi:nodetypes="cccccccc"
         inkscape:path-effect="#path-effect10"
         inkscape:original-d="m 91.21283,140.72279 12.86264,18.34666 7.14986,-5.05264 -9.83781,-13.65615 7.13609,-5.0409 2.44667,3.47211 24.04,-18.04679 z"
         transform="matrix(-1.039555,0,0,-1.0395551,221.00468,305.99904)" /></g></g></svg>
